<svg width="10" height="11" viewBox="0 0 10 11" fill="none" xmlns="http://www.w3.org/2000/svg">
<path d="M10 8.9815C10 9.1795 9.95994 9.383 9.87481 9.581C9.78968 9.779 9.67952 9.966 9.5343 10.142C9.28893 10.439 9.01853 10.6535 8.71307 10.791C8.41262 10.9285 8.08713 11 7.73661 11C7.22584 11 6.68002 10.868 6.10416 10.5985C5.52829 10.329 4.95243 9.966 4.38157 9.5095C3.79975 9.04206 3.25072 8.52727 2.73911 7.9695C2.23273 7.40961 1.7657 6.80839 1.34201 6.171C0.931397 5.544 0.600901 4.917 0.360541 4.2955C0.12018 3.6685 0 3.069 0 2.497C0 2.123 0.0600901 1.7655 0.18027 1.4355C0.300451 1.1 0.490736 0.792 0.756134 0.517C1.07661 0.1705 1.42714 0 1.7977 0C1.93791 0 2.07812 0.033 2.20331 0.099C2.3335 0.165 2.44867 0.264 2.53881 0.407L3.70055 2.2055C3.79069 2.343 3.85578 2.4695 3.90085 2.5905C3.94592 2.706 3.97096 2.8215 3.97096 2.926C3.97096 3.058 3.9359 3.19 3.8658 3.3165C3.8007 3.443 3.70556 3.575 3.58538 3.707L3.20481 4.1415C3.14972 4.202 3.12469 4.2735 3.12469 4.3615C3.12469 4.4055 3.12969 4.444 3.13971 4.488C3.15473 4.532 3.16975 4.565 3.17977 4.598C3.26991 4.7795 3.42514 5.016 3.64547 5.302C3.87081 5.588 4.11117 5.8795 4.37156 6.171C4.64196 6.4625 4.90235 6.732 5.16775 6.9795C5.42814 7.2215 5.64347 7.3865 5.81372 7.4855C5.83876 7.4965 5.8688 7.513 5.90386 7.5295C5.94392 7.546 5.98398 7.5515 6.02904 7.5515C6.11417 7.5515 6.17927 7.5185 6.23435 7.458L6.61492 7.0455C6.74011 6.908 6.86029 6.8035 6.97546 6.7375C7.09064 6.6605 7.20581 6.622 7.331 6.622C7.42614 6.622 7.52629 6.644 7.63646 6.6935C7.74662 6.743 7.86179 6.8145 7.98698 6.908L9.64447 8.2005C9.77466 8.2995 9.8648 8.415 9.91988 8.5525C9.96996 8.69 10 8.8275 10 8.9815Z" fill="#E0E0E0"/>
</svg>
